Coordinates
version=1
nRows=43
nColumns=12
inDegrees=yes

Units are S.I. units (second, meters, Newtons, ...)
Angles are in degrees

endheader
time	SC_y	SC_z	SC_x	AC_y	AC_z	AC_x	GH_y	GH_z	GH_yy	EL_x	PS_y
       0.0              -32.63          37.75          40.18          53.65         -9.932         -9.661         -3.219         -9.137          101.6          6.976          62.21
   0.04745              -32.63          37.75          40.17          53.65         -9.931         -9.658         -3.193         -9.131          101.6          6.982          62.22
   0.09491              -32.63          37.75          40.17          53.65         -9.929         -9.655         -3.165         -9.124          101.6          6.989          62.23
    0.1424              -32.63          37.74          40.17          53.65         -9.928         -9.652         -3.136         -9.116          101.7          6.996          62.23
    0.1898              -32.63          37.74          40.17          53.65         -9.926         -9.648         -3.105         -9.109          101.7          7.003          62.24
    0.2373              -32.62          37.74          40.17          53.65         -9.924         -9.645         -3.071         -9.101          101.7          7.011          62.25
    0.2847              -32.62          37.74          40.17          53.65         -9.922         -9.641         -3.035         -9.092          101.7           7.02          62.26
    0.3322              -32.62          37.74          40.16          53.65          -9.92         -9.636         -2.997         -9.082          101.7          7.029          62.27
    0.3796              -32.62          37.74          40.16          53.65         -9.918         -9.632         -2.956         -9.072          101.7          7.038          62.28
    0.4271              -32.62          37.74          40.16          53.65         -9.915         -9.627         -2.912         -9.062          101.7          7.049          62.29
    0.4745              -32.62          37.73          40.16          53.65         -9.912         -9.622         -2.865          -9.05          101.7           7.06           62.3
     0.522              -32.62          37.73          40.15          53.65          -9.91         -9.616         -2.814         -9.038          101.7          7.072          62.31
    0.5695              -32.62          37.73          40.15          53.65         -9.906          -9.61         -2.759         -9.024          101.7          7.085          62.33
    0.6169              -32.61          37.73          40.15          53.65         -9.903         -9.603           -2.7          -9.01          101.7          7.099          62.34
    0.6644              -32.61          37.73          40.14          53.65           -9.9         -9.596         -2.636         -8.994          101.7          7.115          62.36
    0.7118              -32.61          37.72          40.14          53.65         -9.896         -9.588         -2.567         -8.977          101.8          7.131          62.38
    0.7593              -32.61          37.72          40.14          53.65         -9.891          -9.58         -2.491         -8.958          101.8          7.149          62.39
    0.8067              -32.61          37.72          40.13          53.65         -9.887         -9.571         -2.409         -8.938          101.8          7.169          62.41
    0.8542               -32.6          37.71          40.13          53.65         -9.882         -9.561          -2.32         -8.916          101.8           7.19          62.44
    0.9016               -32.6          37.71          40.12          53.65         -9.876          -9.55         -2.221         -8.892          101.8          7.214          62.46
    0.9491               -32.6          37.71          40.12          53.65          -9.87         -9.538         -2.114         -8.866          101.8          7.239          62.49
    0.9965               -32.6           37.7          40.11          53.65         -9.863         -9.525         -1.995         -8.837          101.9          7.268          62.52
     1.044              -32.59           37.7           40.1          53.65         -9.856          -9.51         -1.864         -8.804          101.9          7.299          62.55
     1.091              -32.59          37.69          40.09          53.65         -9.848         -9.494         -1.718         -8.769          101.9          7.334          62.59
     1.139              -32.58          37.68          40.09          53.65         -9.839         -9.476         -1.557         -8.729          101.9          7.372          62.63
     1.186              -32.58          37.68          40.08          53.65         -9.828         -9.456         -1.377         -8.685          102.0          7.415          62.67
     1.234              -32.57          37.67          40.06          53.65         -9.817         -9.433         -1.175         -8.635          102.0          7.463          62.72
     1.281              -32.57          37.66          40.05          53.65         -9.804         -9.408        -0.9477          -8.58          102.0          7.517          62.78
     1.329              -32.56          37.65          40.04          53.65          -9.79         -9.379        -0.6911         -8.517          102.1          7.579          62.84
     1.376              -32.55          37.64          40.02          53.65         -9.773         -9.347        -0.3997         -8.445          102.1          7.648          62.91
     1.424              -32.54          37.63           40.0          53.66         -9.754          -9.31       -0.06717         -8.364          102.2          7.727          62.99
     1.471              -32.53          37.61          39.98          53.66         -9.733         -9.267         0.3145          -8.27          102.3          7.818          63.09
     1.519              -32.52           37.6          39.96          53.66         -9.708         -9.218         0.7551         -8.162          102.4          7.923           63.2
     1.566              -32.51          37.58          39.93          53.66         -9.679         -9.161          1.267         -8.036          102.4          8.046          63.33
     1.613              -32.49          37.55           39.9          53.66         -9.645         -9.094          1.866         -7.889          102.6          8.188          63.47
     1.661              -32.47          37.53          39.86          53.66         -9.605         -9.015          2.572         -7.716          102.7          8.357          63.65
     1.708              -32.45           37.5          39.82          53.67         -9.558         -8.922          3.411          -7.51          102.8          8.557          63.86
     1.756              -32.42          37.46          39.76          53.67         -9.501         -8.809          4.417         -7.263          103.0          8.797          64.11
     1.803              -32.39          37.41          39.69          53.67         -9.432         -8.674          5.634         -6.965          103.2          9.087          64.41
     1.851              -32.35          37.36          39.61          53.68         -9.348         -8.508          7.121           -6.6          103.5          9.441          64.78
     1.898               -32.3          37.29          39.51          53.68         -9.245         -8.303          8.956          -6.15          103.8          9.879          65.23
     1.946              -32.24           37.2          39.39          53.69         -9.115         -8.048          11.24         -5.589          104.2          10.42           65.8
     1.993              -32.16          37.09          39.23           53.7         -8.953         -7.726          14.13         -4.882          104.8          11.11          66.51
